# xmcd
#
# Track frame offsets: 
#        150
#        18407
#        46119
#        67285
#        93297
#        115257
#        135935
#        156640
#        175990
#        196572
#        217615
#        235247
#        251112
#        280335
#
# Disc length: 4080 seconds
#
# Revision: 5
# Processed by: cddbd v1.5.2PL0 Copyright (c) Steve Scherf et al.
# Submitted via: ExactAudioCopy v1.0b3
#
DISCID=bf0fee0e
DTITLE=中島美嘉 - VOICE
DYEAR=2008
DGENRE=JPop
TTITLE0=LIFE
TTITLE1=SAKURA～花霞～ （DAISHI DANCE）
TTITLE2=FOCUS
TTITLE3=永遠の詩
TTITLE4=ORION
TTITLE5=あなたがいるから
TTITLE6=MY GENTLEMAN
TTITLE7=TRUST YOUR VOICE
TTITLE8=IT'S TOO LATE
TTITLE9=I DON'T KNOW
TTITLE10=SHUT UP
TTITLE11=conFusiOn
TTITLE12=FLOWER OF TIME
TTITLE13=声
EXTD=
EXTT0=
EXTT1=
EXTT2=
EXTT3=
EXTT4=
EXTT5=
EXTT6=
EXTT7=
EXTT8=
EXTT9=
EXTT10=
EXTT11=
EXTT12=
EXTT13=
PLAYORDER=
